<mxfile host="app.diagrams.net" modified="2020-03-16T01:16:08.964Z" agent="Mozilla/5.0 (Macintosh; Intel Mac OS X 10_13_6) AppleWebKit/537.36 (KHTML, like Gecko) Chrome/80.0.3987.132 Safari/537.36" etag="2h2mvXO5rtxDo0WGOnxQ" version="12.8.5" type="github">
  <diagram id="Z0jaaszpYSkVAQKT3TR8" name="Page-1">
    <mxGraphModel dx="730" dy="527" grid="1" gridSize="10" guides="1" tooltips="1" connect="1" arrows="1" fold="1" page="1" pageScale="1" pageWidth="827" pageHeight="1169" math="0" shadow="0">
      <root>
        <mxCell id="0" />
        <mxCell id="1" parent="0" />
        <mxCell id="QSMStZTYqwHB6GbbEcOR-2" value="gRPC App&lt;br&gt;Server" style="html=1;whiteSpace=wrap;comic=1;strokeWidth=2;fontFamily=Comic Sans MS;fontStyle=1;" vertex="1" parent="1">
          <mxGeometry x="540" y="210" width="120" height="60" as="geometry" />
        </mxCell>
        <mxCell id="QSMStZTYqwHB6GbbEcOR-3" value="envoy" style="rhombus;html=1;align=center;whiteSpace=wrap;comic=1;strokeWidth=2;fontFamily=Comic Sans MS;fontStyle=1;" vertex="1" parent="1">
          <mxGeometry x="300" y="190" width="100" height="100" as="geometry" />
        </mxCell>
        <mxCell id="QSMStZTYqwHB6GbbEcOR-5" value="gRPC Authorization&lt;br&gt;Server" style="html=1;whiteSpace=wrap;comic=1;strokeWidth=2;fontFamily=Comic Sans MS;fontStyle=1;" vertex="1" parent="1">
          <mxGeometry x="290" y="10" width="120" height="60" as="geometry" />
        </mxCell>
        <mxCell id="QSMStZTYqwHB6GbbEcOR-6" value="" style="rounded=0;comic=1;strokeWidth=2;endArrow=blockThin;html=1;fontFamily=Comic Sans MS;fontStyle=1;exitX=1;exitY=0.5;exitDx=0;exitDy=0;entryX=0;entryY=0.5;entryDx=0;entryDy=0;" edge="1" parent="1" source="QSMStZTYqwHB6GbbEcOR-3" target="QSMStZTYqwHB6GbbEcOR-2">
          <mxGeometry width="50" height="50" relative="1" as="geometry">
            <mxPoint x="420" y="340" as="sourcePoint" />
            <mxPoint x="470" y="290" as="targetPoint" />
          </mxGeometry>
        </mxCell>
        <mxCell id="QSMStZTYqwHB6GbbEcOR-13" value="&lt;font face=&quot;Comic Sans MS&quot;&gt;input + append&lt;/font&gt;" style="text;html=1;align=center;verticalAlign=middle;resizable=0;points=[];labelBackgroundColor=#ffffff;" vertex="1" connectable="0" parent="QSMStZTYqwHB6GbbEcOR-6">
          <mxGeometry x="-0.2" relative="1" as="geometry">
            <mxPoint x="4" as="offset" />
          </mxGeometry>
        </mxCell>
        <mxCell id="QSMStZTYqwHB6GbbEcOR-7" value="gRPC Client" style="html=1;whiteSpace=wrap;comic=1;strokeWidth=2;fontFamily=Comic Sans MS;fontStyle=1;" vertex="1" parent="1">
          <mxGeometry x="40" y="210" width="120" height="60" as="geometry" />
        </mxCell>
        <mxCell id="QSMStZTYqwHB6GbbEcOR-8" value="&lt;span style=&quot;font-weight: normal&quot;&gt;input&lt;br&gt;&lt;/span&gt;" style="rounded=0;comic=1;strokeWidth=2;endArrow=blockThin;html=1;fontFamily=Comic Sans MS;fontStyle=1;exitX=1;exitY=0.5;exitDx=0;exitDy=0;entryX=0;entryY=0.5;entryDx=0;entryDy=0;" edge="1" parent="1" source="QSMStZTYqwHB6GbbEcOR-7" target="QSMStZTYqwHB6GbbEcOR-3">
          <mxGeometry width="50" height="50" relative="1" as="geometry">
            <mxPoint x="350" y="340" as="sourcePoint" />
            <mxPoint x="400" y="290" as="targetPoint" />
          </mxGeometry>
        </mxCell>
        <mxCell id="QSMStZTYqwHB6GbbEcOR-9" value="&lt;span style=&quot;font-weight: normal&quot;&gt;input metadata&lt;br&gt;&lt;/span&gt;" style="rounded=0;comic=1;strokeWidth=2;endArrow=blockThin;html=1;fontFamily=Comic Sans MS;fontStyle=1;exitX=0.5;exitY=0;exitDx=0;exitDy=0;entryX=0.5;entryY=1;entryDx=0;entryDy=0;startArrow=none;startFill=0;" edge="1" parent="1" source="QSMStZTYqwHB6GbbEcOR-3" target="QSMStZTYqwHB6GbbEcOR-5">
          <mxGeometry width="50" height="50" relative="1" as="geometry">
            <mxPoint x="350" y="300" as="sourcePoint" />
            <mxPoint x="400" y="250" as="targetPoint" />
          </mxGeometry>
        </mxCell>
      </root>
    </mxGraphModel>
  </diagram>
</mxfile>
